# Blender v2.76 (sub 0) OBJ File: 'YOGURT2.blend'
# www.blender.org
mtllib base.mtl
o base_01_Plane.002
v -31.886595 -0.052301 83.735283
v 55.054081 -0.052301 83.735283
v 55.054081 -5.622219 83.735283
v -31.886595 -5.622219 83.735283
v 55.054081 -5.622219 79.314384
v 55.054081 -21.309359 79.314384
v -31.886595 -21.309359 79.314384
v -31.886595 -5.622219 79.314384
vt 0.992731 0.300371
vt 0.007269 0.300371
vt 0.007269 0.236313
vt 0.992731 0.236312
vt 0.992731 0.185469
vt 0.007269 0.185468
vt 0.007269 0.005053
vt 0.992731 0.005053
vn 0.000000 0.000000 -1.000000
vn 0.000000 1.000000 0.000000
usemtl None
s off
f 1/1/1 2/2/1 3/3/1 4/4/1
f 8/5/1 5/6/1 6/7/1 7/8/1
f 4/4/2 3/3/2 5/6/2 8/5/2
