# Blender v2.76 (sub 0) OBJ File: 'YOGURT2.blend'
# www.blender.org
mtllib wall_03obj.mtl
o BG_02_Plane.003
v -21.280169 0.067115 -0.040604
v 22.277304 0.067115 -0.040604
v 22.277304 47.552292 -0.040604
v -21.280169 47.552292 -0.040604
v -12.260879 9.067169 5.889299
v -12.260879 24.282230 5.868296
v -12.260879 9.067169 1.965114
v -12.260879 24.282230 1.965114
v 12.014144 9.067169 5.889299
v 12.014144 24.282230 5.868296
v 12.014144 9.067169 1.965114
v 12.014144 24.282230 1.965114
v -13.032180 5.011197 14.467218
v 13.175857 5.011197 14.467218
v 12.014144 14.140862 5.889299
v -12.260879 14.140862 5.889299
v -12.260879 9.067169 9.973792
v 12.014144 9.067169 9.973792
v 12.014144 14.140862 9.973792
v -12.260879 14.140862 9.973792
v -12.260879 9.067169 -2.233390
v -12.260879 29.578804 -2.233390
v 12.014144 9.067169 -2.233390
v 12.014144 29.578804 -2.233390
v -13.032180 5.011197 -3.911429
v 13.175857 5.011197 -3.911429
v -12.260879 29.578804 1.965114
v 12.014144 29.578804 1.965114
v -13.032180 9.067169 14.467218
v 13.175857 9.067169 14.467218
v -13.032180 9.067169 -3.911429
v 13.175857 9.067169 -3.911429
vt 0.383473 0.986819
vt 0.383473 0.323355
vt 0.009969 0.323355
vt 0.009969 0.986819
vt 0.695854 0.152527
vt 0.665639 0.152527
vt 0.665639 0.015615
vt 0.695854 0.015615
vt 0.470403 0.182742
vt 0.470403 0.152527
vt 0.665639 0.182742
vt 0.127261 0.014931
vt 0.127261 0.309399
vt 0.077714 0.309399
vt 0.077714 0.014931
vt 0.250281 0.014931
vt 0.297628 0.014931
vt 0.297628 0.309399
vt 0.250281 0.309399
vt 0.016167 0.309399
vt 0.016167 0.014931
vt 0.906842 0.358895
vt 0.906842 0.648189
vt 0.986671 0.648189
vt 0.986671 0.258189
vt 0.887777 0.119799
vt 0.887777 0.023330
vt 0.965438 0.023330
vt 0.965438 0.119799
vt 0.832229 0.648189
vt 0.832229 0.551720
vt 0.754568 0.551720
vt 0.754568 0.648189
vt 0.813164 0.023330
vt 0.813164 0.312623
vt 0.733335 0.413330
vt 0.733335 0.023330
vt 0.440188 0.015615
vt 0.470403 0.015615
vt 0.440188 0.152527
vt 0.832628 0.358895
vt 0.906842 0.258188
vt 0.887378 0.312623
vt 0.813164 0.413330
vt 0.361878 0.014931
vt 0.361878 0.309399
vt 0.412808 0.014931
vt 0.412808 0.309399
vt 0.665639 0.319653
vt 0.470403 0.319653
vn 0.000000 0.000000 1.000000
vn 0.577300 0.577300 0.577300
vn 0.577300 -0.577300 0.577300
vn 0.707100 -0.707100 0.000000
vn 0.707100 0.707100 0.000000
vn -0.577300 0.577300 0.577300
vn -0.577300 -0.577300 0.577300
vn 0.904300 0.302200 0.301600
vn -0.904300 0.302200 0.301600
vn 0.577400 0.577900 0.576700
vn 0.904500 0.301500 0.301500
vn -0.904500 0.301500 0.301500
vn -0.577400 0.577900 0.576700
vn -0.707100 0.000000 0.707100
vn 0.707100 0.000000 0.707100
vn 1.000000 0.000000 0.000000
vn -1.000000 0.000000 0.000000
vn -0.707100 0.707100 0.000000
vn -0.707100 -0.707100 0.000000
usemtl None
s 1
f 4/1/1 1/2/1 2/3/1 3/4/1
f 30/5/2 14/6/3 26/7/4 32/8/5
f 29/9/6 13/10/7 14/6/3 30/11/2
f 15/12/8 16/13/9 20/14/6 19/15/2
f 10/16/10 12/17/11 8/18/12 6/19/13
f 16/13/9 15/12/8 10/16/10 6/19/13
f 19/15/2 20/14/6 17/20/14 18/21/15
f 12/22/11 11/23/16 23/24/16 24/25/5
f 16/26/9 5/27/17 17/28/14 20/29/6
f 9/30/16 15/31/8 19/32/2 18/33/15
f 7/34/17 8/35/12 22/36/18 21/37/17
f 31/38/18 25/39/19 13/10/7 29/40/6
f 11/23/16 12/22/11 10/41/10 15/31/8
f 12/22/11 24/25/5 28/42/2
f 8/35/12 7/34/17 16/26/9 6/43/13
f 13/10/7 25/39/19 26/7/4 14/6/3
f 11/23/16 15/31/8 9/30/16
f 22/36/18 8/35/12 27/44/6
f 16/26/9 7/34/17 5/27/17
f 8/18/12 12/17/11 28/45/2 27/46/6
f 27/46/6 28/45/2 24/47/5 22/48/18
f 29/9/6 30/11/2 32/49/5 31/50/18
